<svg xmlns="http://www.w3.org/2000/svg" width="93.89" height="25.838" viewBox="0 0 93.89 25.838">
  <g id="Mobile" transform="translate(-129.014 -44)">
    <g id="Group_2624" data-name="Group 2624" transform="translate(129.014 44)">
      <path id="Path_11545" data-name="Path 11545" d="M122.435,171.825a3.615,3.615,0,1,1-5.108,5.116,16.786,16.786,0,0,1,0-23.718,3.615,3.615,0,0,1,5.109,5.115,9.545,9.545,0,0,0,0,13.487Z" transform="translate(-112.42 -152.162)" fill="#142a4a"/>
      <path id="Union_3" data-name="Union 3" d="M10.349,24.778a3.62,3.62,0,0,1,0-5.116,9.516,9.516,0,0,0,2.79-6.744A9.562,9.562,0,0,0,12.4,9.233L6.167,15.475h0a3.615,3.615,0,0,1-5.108-5.116l9.29-9.3a3.609,3.609,0,0,1,5.109,0,16.786,16.786,0,0,1,0,23.718,3.609,3.609,0,0,1-5.109,0Z" transform="translate(13.138 0)" fill="#142a4a"/>
    </g>
    <path id="Path_12644" data-name="Path 12644" d="M11.04-11.36a1.314,1.314,0,0,1,.992.4,1.439,1.439,0,0,1,.384,1.04v8.7a1.3,1.3,0,0,1-.352.96A1.255,1.255,0,0,1,11.136.1a1.261,1.261,0,0,1-.92-.352,1.281,1.281,0,0,1-.36-.96v-4.7L8.032-2.56a2.064,2.064,0,0,1-.576.728,1.211,1.211,0,0,1-.72.216,1.211,1.211,0,0,1-.72-.216A2.064,2.064,0,0,1,5.44-2.56L3.632-5.824v4.608a1.287,1.287,0,0,1-.36.952A1.266,1.266,0,0,1,2.336.1a1.261,1.261,0,0,1-.92-.352,1.281,1.281,0,0,1-.36-.96v-8.7a1.423,1.423,0,0,1,.392-1.04,1.34,1.34,0,0,1,1-.4,1.33,1.33,0,0,1,.784.248,1.935,1.935,0,0,1,.592.712L6.768-4.864,9.7-10.4A1.5,1.5,0,0,1,11.04-11.36ZM18.272.128a4.935,4.935,0,0,1-2.28-.5,3.618,3.618,0,0,1-1.52-1.432,4.274,4.274,0,0,1-.536-2.176,4.23,4.23,0,0,1,.536-2.168,3.592,3.592,0,0,1,1.512-1.416,4.988,4.988,0,0,1,2.288-.5,4.988,4.988,0,0,1,2.288.5,3.592,3.592,0,0,1,1.512,1.416,4.23,4.23,0,0,1,.536,2.168,4.274,4.274,0,0,1-.536,2.176A3.629,3.629,0,0,1,20.56-.376,4.922,4.922,0,0,1,18.272.128Zm0-2.128q1.52,0,1.52-1.984t-1.52-1.984q-1.52,0-1.52,1.984T18.272-2Zm9.6,2.128a4.935,4.935,0,0,1-2.28-.5,3.618,3.618,0,0,1-1.52-1.432,4.274,4.274,0,0,1-.536-2.176,4.23,4.23,0,0,1,.536-2.168,3.592,3.592,0,0,1,1.512-1.416,4.988,4.988,0,0,1,2.288-.5,4.988,4.988,0,0,1,2.288.5,3.592,3.592,0,0,1,1.512,1.416,4.231,4.231,0,0,1,.536,2.168,4.274,4.274,0,0,1-.536,2.176A3.629,3.629,0,0,1,30.16-.376,4.922,4.922,0,0,1,27.872.128Zm0-2.128q1.52,0,1.52-1.984t-1.52-1.984q-1.52,0-1.52,1.984T27.872-2ZM34.928.1a1.57,1.57,0,0,1-1.016-.328,1.187,1.187,0,0,1-.408-.984v-8.816a1.211,1.211,0,0,1,.408-.992,1.545,1.545,0,0,1,1.016-.336,1.545,1.545,0,0,1,1.016.336,1.211,1.211,0,0,1,.408.992v8.816a1.187,1.187,0,0,1-.408.984A1.57,1.57,0,0,1,34.928.1Zm8.064-8.128a1.074,1.074,0,0,1,.864.248,1.13,1.13,0,0,1,.32.872,1.25,1.25,0,0,1-.3.928,1.8,1.8,0,0,1-1.064.368l-.48.048a1.7,1.7,0,0,0-1.144.5,1.671,1.671,0,0,0-.344,1.112v2.736a1.187,1.187,0,0,1-.408.984A1.57,1.57,0,0,1,39.424.1a1.57,1.57,0,0,1-1.016-.328A1.187,1.187,0,0,1,38-1.216V-6.752a1.155,1.155,0,0,1,.408-.944,1.5,1.5,0,0,1,.984-.336,1.38,1.38,0,0,1,.952.32,1.136,1.136,0,0,1,.36.9v.3a2.132,2.132,0,0,1,.84-1.088,2.421,2.421,0,0,1,1.224-.416Zm7.952,5.5a.735.735,0,0,1,.6.288,1.162,1.162,0,0,1,.232.752,1.058,1.058,0,0,1-.624.976,6.233,6.233,0,0,1-1.288.456A5.732,5.732,0,0,1,48.5.128a4.988,4.988,0,0,1-2.288-.5,3.528,3.528,0,0,1-1.5-1.424,4.326,4.326,0,0,1-.528-2.176,4.4,4.4,0,0,1,.5-2.12,3.629,3.629,0,0,1,1.408-1.456,4.017,4.017,0,0,1,2.04-.52,3.805,3.805,0,0,1,1.936.48,3.269,3.269,0,0,1,1.288,1.36,4.428,4.428,0,0,1,.456,2.064.859.859,0,0,1-.168.568.6.6,0,0,1-.488.2H46.928a1.754,1.754,0,0,0,.5,1.1,1.68,1.68,0,0,0,1.136.336A2.9,2.9,0,0,0,49.3-2.04a7.214,7.214,0,0,0,.752-.248q.24-.1.472-.168A1.442,1.442,0,0,1,50.944-2.528ZM48.208-6.144a1.167,1.167,0,0,0-.9.36,1.728,1.728,0,0,0-.4,1.048h2.512Q49.328-6.144,48.208-6.144Z" transform="translate(171.096 61.684)" fill="#142a4a"/>
  </g>
</svg>
