<?xml version="1.0" standalone="no"?>
<!DOCTYPE svg PUBLIC "-//W3C//DTD SVG 20010904//EN"
 "http://www.w3.org/TR/2001/REC-SVG-20010904/DTD/svg10.dtd">
<svg version="1.0" xmlns="http://www.w3.org/2000/svg"
 width="626.000000pt" height="417.000000pt" viewBox="0 0 626.000000 417.000000"
 preserveAspectRatio="xMidYMid meet">
<metadata>
Created by potrace 1.16, written by Peter Selinger 2001-2019
</metadata>
<g transform="translate(0.000000,417.000000) scale(0.100000,-0.100000)"
fill="#000000" stroke="none">
<path d="M3394 3057 c-108 -57 -154 -95 -198 -166 -21 -33 -44 -62 -52 -65 -8
-3 -14 -12 -14 -21 0 -9 -7 -27 -16 -40 -9 -13 -13 -29 -9 -35 3 -5 -1 -10 -9
-10 -10 0 -14 -10 -14 -30 1 -16 -4 -35 -10 -43 -9 -10 -9 -16 0 -25 8 -8 8
-15 -2 -27 -12 -14 -11 -18 1 -26 8 -5 10 -9 4 -9 -11 0 -14 -139 -3 -156 4
-5 3 -26 -1 -45 -4 -18 -6 -46 -4 -61 2 -15 -3 -43 -11 -61 -7 -19 -11 -46 -9
-61 3 -14 -1 -33 -8 -42 -11 -14 -10 -18 6 -31 11 -7 31 -17 45 -20 14 -3 28
-11 32 -17 6 -8 8 -8 8 0 0 17 28 25 36 12 4 -7 3 -8 -4 -4 -7 4 -12 2 -12 -5
0 -7 -16 -44 -36 -83 l-36 -71 40 39 c22 21 38 44 35 51 -2 8 5 18 16 25 12 6
21 8 21 5 0 -3 12 2 28 11 15 10 -9 -20 -53 -65 -66 -68 -75 -80 -50 -71 17 6
36 18 43 27 6 9 12 13 12 9 0 -4 12 2 26 13 15 11 30 18 35 15 5 -3 9 4 9 14
0 11 8 22 18 25 12 2 22 17 25 36 4 18 13 39 21 46 8 8 17 20 19 27 4 10 9 8
20 -4 13 -17 17 -17 63 -1 27 9 58 22 69 29 11 7 29 13 40 12 11 -1 30 2 43 6
14 5 22 3 22 -4 0 -7 8 -5 22 4 26 19 89 20 137 2 55 -20 72 -52 88 -168 16
-119 13 -161 -22 -267 -13 -42 -38 -121 -56 -176 -31 -103 -76 -197 -110 -234
-10 -11 -19 -27 -19 -35 0 -8 -6 -19 -12 -23 -15 -9 -32 -39 -103 -186 -30
-62 -56 -86 -96 -89 -29 -2 -89 23 -89 37 0 6 -13 19 -30 28 -16 10 -30 15
-30 11 0 -3 -7 -1 -15 6 -8 6 -13 15 -12 18 4 12 -38 47 -71 61 -18 8 -64 45
-101 82 -38 38 -72 69 -75 69 -10 0 -86 79 -115 118 -13 17 -29 32 -36 32 -7
0 -20 20 -29 45 -13 32 -23 45 -37 45 -10 0 -24 9 -31 21 -17 27 -73 53 -95
44 -15 -7 -15 -9 -3 -12 8 -3 56 -52 105 -110 50 -58 96 -111 102 -118 10 -11
9 -30 -4 -94 -9 -45 -20 -81 -24 -81 -12 0 -12 47 0 54 5 3 12 25 15 49 6 39
4 47 -23 76 -16 17 -31 31 -33 31 -3 0 -3 -14 0 -31 5 -36 -24 -72 -70 -88
-25 -9 -29 -8 -24 5 3 9 2 12 -4 9 -16 -10 -99 83 -134 150 -17 32 -18 40 -7
68 22 55 24 73 4 38 -11 -19 -24 -36 -30 -38 -5 -2 -26 23 -47 56 -33 54 -90
110 -102 99 -2 -3 17 -31 42 -64 55 -71 83 -124 76 -144 -3 -8 -25 -41 -49
-72 -24 -32 -40 -58 -34 -58 5 0 24 20 41 45 17 25 32 45 33 45 2 0 1 -19 0
-42 -2 -35 -1 -38 6 -18 5 14 10 41 10 60 2 34 2 34 17 15 9 -11 31 -50 49
-86 l34 -66 -40 -12 c-26 -8 -44 -21 -54 -41 -9 -17 -19 -30 -22 -30 -4 0 -23
15 -43 33 -19 19 -63 44 -98 57 -61 22 -63 22 -77 4 -8 -11 -15 -21 -15 -24 0
-3 31 -16 69 -29 42 -14 81 -35 98 -53 26 -27 29 -28 40 -12 9 13 13 14 13 4
0 -11 3 -11 12 -2 7 7 17 12 23 12 10 -1 -23 -23 -37 -26 -5 -1 -10 -2 -13 -3
-2 0 0 -13 5 -27 6 -14 6 -23 1 -20 -4 3 -13 -6 -19 -19 -12 -27 -4 -33 17
-12 11 10 13 10 7 0 -5 -10 5 -13 39 -13 38 0 46 -3 41 -15 -3 -9 0 -15 10
-15 8 0 17 -7 20 -15 10 -25 50 11 62 55 l10 40 -30 -25 c-16 -14 -36 -25 -44
-25 -18 0 -6 26 56 118 31 48 48 63 76 71 20 6 47 20 60 32 13 12 27 19 31 16
9 -9 -86 -214 -115 -249 l-24 -28 51 0 c34 0 51 4 51 13 0 8 4 7 10 -3 7 -11
10 -11 10 -2 0 10 5 10 20 2 16 -9 20 -8 20 5 0 8 5 15 10 15 6 0 10 14 10 30
0 20 5 30 15 30 8 0 15 6 15 13 0 8 3 8 9 -2 5 -8 7 -20 4 -28 -6 -16 9 -17
24 -2 8 8 15 5 25 -10 11 -15 23 -19 51 -16 20 1 37 -1 37 -6 0 -5 7 -9 15 -9
8 0 15 -6 15 -12 0 -20 77 -52 116 -50 20 2 41 -4 49 -12 13 -13 10 -16 -28
-29 -41 -15 -41 -15 -11 -16 34 -1 140 -59 186 -102 23 -22 28 -35 28 -74 0
-31 4 -44 11 -39 6 3 9 17 6 30 -2 13 -1 24 3 24 4 0 13 11 20 25 7 13 17 22
22 19 4 -3 11 2 14 11 13 32 24 -8 24 -87 0 -42 5 -80 10 -83 6 -4 8 -10 5
-15 -3 -4 -7 -28 -10 -51 -3 -24 -8 -51 -10 -59 -5 -17 -16 -116 -20 -170 -6
-109 -5 -106 -16 -87 -5 9 -8 21 -4 26 3 5 0 22 -6 38 -7 15 -14 42 -16 58
-10 72 -14 123 -15 167 -1 64 -15 61 -22 -4 -13 -138 -26 -361 -22 -365 3 -3
-1 -18 -9 -33 -10 -19 -12 -37 -6 -57 5 -17 5 -49 1 -72 l-7 -41 57 0 56 0 52
248 c28 136 65 319 83 407 17 88 35 164 39 169 5 5 49 -1 105 -13 53 -13 103
-20 111 -17 8 3 13 2 10 -3 -3 -5 18 -13 47 -19 37 -7 53 -7 56 0 2 6 9 -2 17
-18 11 -26 12 -20 13 66 1 52 3 113 6 135 4 32 3 35 -4 15 -5 -14 -9 -42 -10
-63 -1 -49 -21 -39 -21 11 0 42 28 110 53 131 10 7 17 11 17 8 0 -3 23 10 51
29 28 19 59 34 68 34 9 0 23 6 30 12 15 16 -37 -101 -55 -123 -8 -8 -14 -21
-14 -27 0 -7 -5 -12 -11 -12 -6 0 -8 9 -5 20 16 54 14 61 -5 22 -11 -24 -24
-80 -29 -125 -5 -45 -14 -98 -20 -117 -12 -42 -12 -40 -2 -38 4 1 33 -2 66 -7
45 -6 60 -5 67 6 6 10 11 11 17 3 10 -15 66 -25 101 -18 27 6 29 8 24 45 -6
41 9 53 35 27 10 -10 11 -2 6 36 -9 63 6 55 31 -18 35 -103 20 -97 263 -96
l212 1 0 -52 c0 -50 1 -51 25 -46 25 4 25 4 8 -15 -23 -25 -25 -75 -5 -106 9
-13 17 -40 18 -60 l3 -37 -10 33 c-5 17 -15 32 -21 32 -9 0 -8 -87 7 -355 1
-16 2 -47 3 -67 l2 -38 119 0 c86 0 121 3 124 13 4 9 6 9 6 0 1 -10 51 -13
219 -12 119 1 207 4 195 6 -15 3 -23 12 -23 24 0 12 -7 19 -20 19 -13 0 -20 7
-20 20 0 13 -7 20 -19 20 -11 0 -21 6 -24 13 -6 17 3 -34 9 -56 5 -17 3 -16
-16 3 -16 16 -25 19 -33 11 -6 -6 -15 -11 -19 -11 -4 0 0 8 10 18 11 11 20 14
24 8 4 -6 10 -8 13 -4 4 4 -13 40 -38 80 -43 71 -131 262 -156 340 -7 20 -18
42 -26 48 -8 7 4 -30 26 -82 56 -127 99 -245 99 -268 0 -20 -34 -34 -153 -60
-72 -17 -78 -11 -106 85 -11 39 -20 63 -20 55 0 -8 6 -39 13 -67 8 -29 11 -53
7 -53 -4 0 -12 19 -19 43 -22 80 -25 97 -13 97 6 0 11 10 10 23 0 21 -1 21 -9
2 -8 -20 -8 -20 -16 -1 -5 13 -3 21 4 24 7 2 12 13 12 24 0 21 0 21 -20 -1
l-19 -23 6 34 c3 19 0 65 -5 102 -14 86 -8 100 43 107 6 1 21 6 35 11 52 20
68 19 88 -7 15 -18 23 -22 28 -13 4 6 2 14 -4 16 -7 2 -12 10 -12 18 0 7 -12
16 -27 20 -16 3 -33 7 -40 9 -7 2 -10 -2 -6 -11 3 -8 -1 -14 -8 -15 -8 0 -22
-2 -32 -4 -12 -2 -17 1 -13 10 8 22 -5 25 -35 9 -31 -15 -41 -2 -11 15 9 6 12
11 7 11 -12 0 -31 42 -38 82 -3 18 0 25 7 21 8 -5 8 -3 0 8 -6 8 -26 51 -44
97 -22 54 -38 81 -47 78 -7 -3 -15 -1 -18 4 -3 5 -37 98 -76 207 -38 109 -73
207 -77 217 -7 17 -12 15 -38 -22 -16 -22 -38 -45 -49 -51 -17 -8 -18 -10 -2
-10 23 -1 22 -17 -2 -24 -17 -4 -58 -58 -178 -230 -52 -76 -106 -122 -163
-143 -25 -9 -54 -20 -65 -24 -49 -21 -61 -20 -85 5 -22 23 -22 27 -11 82 21
109 80 204 172 278 43 36 149 162 149 179 0 9 10 20 23 25 12 5 48 38 79 74
l57 65 -19 36 c-10 20 -37 61 -59 91 -23 30 -41 57 -41 60 0 13 32 3 48 -16
20 -25 84 -88 108 -108 15 -12 19 -11 35 10 10 13 19 29 19 36 0 6 -27 35 -60
63 -34 29 -68 67 -77 84 -9 17 -21 34 -28 38 -12 7 -95 111 -95 119 0 9 49 8
55 -1 3 -6 24 -10 46 -10 41 0 43 -2 64 -65 7 -20 7 -20 14 0 4 10 4 39 -1 65
-5 25 -7 54 -6 65 2 14 -4 21 -19 23 -13 2 -23 10 -23 18 0 8 -5 14 -10 14 -6
0 -3 15 7 33 12 22 17 56 17 115 1 78 0 81 -12 52 -29 -73 -203 -190 -281
-190 -64 0 -89 33 -54 72 14 16 15 18 0 18 -23 0 -45 36 -39 65 4 22 9 25 49
25 27 0 42 4 38 10 -3 6 -17 10 -31 10 -16 0 -23 4 -18 11 5 9 -1 10 -20 5
-42 -10 -31 13 17 35 l42 20 -47 -4 c-26 -3 -51 0 -58 7 -8 8 -12 5 -16 -12
-7 -25 -15 -27 -32 -10 -9 9 -12 9 -12 1 0 -7 4 -14 9 -17 4 -3 23 -39 41 -81
l33 -76 -28 -29 c-16 -17 -32 -30 -36 -30 -15 0 -33 68 -36 134 -5 139 -11
212 -28 309 -9 54 -18 113 -20 132 -3 37 -80 205 -94 205 -5 0 -19 16 -32 35
-30 44 -134 107 -219 134 -36 11 -101 22 -145 25 -79 6 -81 5 -161 -37z m234
-115 c2 -6 7 -10 11 -7 8 5 81 -68 81 -81 0 -4 10 -19 23 -32 12 -14 17 -23
11 -19 -6 3 -11 -7 -12 -26 -1 -18 -3 -41 -4 -52 -1 -11 2 -32 6 -48 14 -48
-2 -114 -37 -151 -18 -19 -41 -51 -52 -72 -11 -21 -45 -65 -76 -99 -53 -56
-60 -60 -102 -60 -54 0 -82 22 -99 76 -6 21 -15 36 -20 33 -5 -3 -7 -2 -6 3 2
4 -5 19 -15 33 -9 13 -17 21 -17 16 0 -5 -9 -1 -20 9 -11 10 -18 21 -15 23 3
3 12 -3 20 -14 14 -18 14 -17 15 13 0 17 6 34 13 36 7 3 5 6 -5 6 -30 2 -49
54 -42 116 4 31 10 58 14 60 11 7 20 -20 15 -44 -7 -37 94 -45 119 -9 25 35
20 40 -31 32 -27 -3 -45 -3 -41 1 4 4 -5 18 -19 31 -37 34 -22 46 50 39 58 -6
60 -5 37 9 -14 8 -41 18 -61 21 -36 6 -36 7 -29 41 11 48 49 101 85 119 38 19
196 17 203 -3z m526 -957 c4 -14 4 -30 1 -35 -6 -9 11 -14 43 -13 7 1 11 -1 8
-4 -3 -3 8 -25 24 -49 35 -50 38 -80 10 -89 -33 -10 -23 -21 15 -17 41 5 43
-3 11 -42 l-24 -29 -27 29 c-14 16 -46 68 -70 117 -43 85 -43 88 -29 122 17
41 29 44 38 10z m-347 -555 c8 -21 10 -26 22 -100 13 -77 13 -93 1 -62 -7 16
-18 22 -40 22 -20 0 -30 5 -30 15 0 20 -34 19 -55 -1 -15 -15 -15 -14 -9 12 3
16 12 43 19 59 7 17 21 53 29 81 9 28 23 60 31 70 8 10 15 28 17 39 1 11 3
-11 5 -50 2 -38 6 -77 10 -85z m253 -50 c30 -42 57 -125 63 -192 l5 -57 -41
-16 c-23 -9 -58 -30 -78 -46 -43 -34 -49 -28 -49 52 0 27 -8 68 -19 92 -16 37
-41 143 -41 174 0 15 23 20 87 22 47 1 54 -2 73 -29z"/>
<path d="M4459 2899 c-75 -11 -143 -38 -206 -83 -58 -42 -68 -54 -25 -32 42
21 136 19 191 -4 45 -19 45 -19 23 -1 -20 17 -20 20 -5 20 10 -1 34 2 54 6 34
7 37 5 59 -31 13 -22 24 -55 25 -74 0 -19 4 -41 9 -48 4 -7 6 -15 4 -17 -2 -2
-25 23 -51 56 -26 32 -51 59 -56 59 -5 0 4 -14 20 -31 16 -17 26 -35 23 -40
-3 -5 2 -12 11 -15 20 -8 48 -60 52 -99 6 -60 13 -79 26 -66 18 18 26 13 41
-21 9 -23 10 -39 3 -53 -8 -16 -7 -18 4 -7 22 20 30 14 27 -20 -2 -25 -9 -34
-28 -38 -30 -7 -60 -61 -59 -105 l1 -30 7 30 c12 48 30 75 51 75 18 0 20 -7
20 -64 0 -86 -10 -156 -23 -156 -6 0 -21 10 -34 22 -13 12 -23 17 -23 10 0 -6
12 -20 26 -31 21 -16 24 -24 15 -35 -6 -7 -9 -21 -5 -30 3 -9 7 -53 8 -98 1
-55 5 -83 14 -85 7 -3 12 4 12 16 0 11 5 23 10 26 6 3 10 -1 10 -9 0 -9 3 -16
8 -16 4 0 18 -25 31 -55 13 -30 29 -59 35 -64 7 -6 44 -3 99 8 70 14 90 15 98
5 7 -9 18 -10 33 -4 12 4 53 11 91 15 l70 7 -37 -34 c-21 -19 -52 -39 -70 -45
-18 -6 -58 -20 -88 -32 -98 -37 -8 -25 118 15 62 20 116 33 120 29 4 -4 1 -10
-5 -12 -7 -3 -13 -11 -13 -18 0 -16 -47 -48 -72 -49 -10 -1 -23 -7 -27 -15 -5
-7 -35 -19 -67 -27 l-59 -13 58 2 c41 1 56 -1 53 -10 -3 -6 0 -14 7 -16 13 -5
-57 -27 -85 -27 -10 0 -27 -9 -38 -20 -11 -11 -29 -20 -40 -20 -11 0 -20 -4
-20 -10 0 -5 7 -10 16 -10 8 0 12 -5 9 -10 -7 -12 -88 -50 -106 -50 -8 0 -9
-4 0 -13 14 -17 -5 -38 -26 -30 -13 5 -12 0 2 -27 9 -18 36 -78 60 -134 130
-305 179 -413 196 -429 21 -20 25 -47 8 -64 -8 -8 -4 -16 16 -29 26 -17 28
-17 62 1 46 25 84 73 135 170 41 78 42 82 46 195 4 98 7 118 24 134 10 10 17
21 13 24 -3 4 -10 0 -15 -7 -4 -8 -31 -16 -62 -19 -48 -4 -56 -1 -81 23 -15
16 -25 31 -22 34 4 3 9 1 13 -5 26 -40 111 -46 147 -10 13 13 26 21 29 18 3
-3 6 -2 6 3 0 4 -8 14 -17 22 -10 8 -13 12 -7 9 14 -7 17 51 3 59 -5 4 -9 30
-9 60 0 29 -9 83 -21 120 -12 41 -18 78 -14 95 9 42 -3 55 -26 28 l-20 -23 11
23 c6 12 8 28 4 34 -4 6 -3 8 3 5 15 -9 53 57 53 90 0 25 0 26 -20 8 -16 -14
-20 -15 -20 -4 0 8 4 19 8 24 17 21 54 126 48 140 -4 12 -29 15 -133 15 -75 0
-122 -4 -114 -9 10 -7 10 -10 1 -16 -7 -4 -16 -2 -20 5 -4 7 -13 10 -18 6 -6
-4 -18 7 -27 24 -13 24 -13 30 -2 30 8 0 19 -10 26 -22 11 -23 11 -23 5 2 -11
46 -88 154 -157 221 l-68 66 20 34 c16 27 21 60 27 166 6 122 5 136 -15 192
-18 47 -38 74 -96 130 -104 102 -176 127 -306 110z"/>
<path d="M2066 2173 c-12 -12 -6 -22 41 -75 33 -37 61 -57 96 -70 27 -9 82
-35 122 -58 79 -43 101 -49 91 -25 -4 11 9 7 45 -11 27 -15 53 -24 56 -20 10
10 -107 58 -147 60 -33 2 -46 11 -92 61 -29 32 -59 66 -66 77 -7 10 -20 18
-28 18 -8 0 -14 5 -14 10 0 16 -91 45 -104 33z"/>
<path d="M2164 1931 c20 -21 24 -30 14 -34 -9 -4 -4 -12 15 -29 16 -13 28 -30
26 -38 -7 -32 69 -133 107 -144 14 -4 28 -1 37 9 21 21 52 18 117 -9 44 -19
58 -32 72 -63 l18 -38 -6 34 c-7 36 -1 36 40 2 11 -9 16 -10 12 -3 -4 6 -2 12
3 12 18 0 12 20 -6 27 -10 3 -36 20 -58 38 -22 17 -67 43 -100 58 -33 15 -67
32 -75 37 -8 5 -37 22 -64 36 -28 15 -58 37 -69 50 -10 13 -25 24 -32 24 -8 0
-20 10 -26 23 -13 23 -28 37 -43 37 -6 0 3 -13 18 -29z"/>
<path d="M3371 1564 c-6 -22 -17 -61 -26 -89 -8 -27 -15 -62 -15 -77 0 -62
-72 -52 -193 25 -31 20 -61 37 -65 38 -4 0 -21 21 -37 46 -31 47 -64 72 -52
39 6 -14 3 -16 -15 -11 -21 7 -21 7 -2 -12 21 -22 75 -60 116 -83 15 -8 61
-34 101 -57 41 -24 82 -43 91 -43 8 0 37 -20 63 -45 25 -25 48 -43 50 -42 2 2
-8 25 -22 51 -22 41 -24 52 -15 89 16 72 38 202 35 206 -2 1 -8 -14 -14 -35z"/>
<path d="M2051 968 c-16 -26 -11 -29 79 -63 45 -17 90 -43 114 -65 39 -37 40
-37 56 -17 16 19 15 22 -24 57 -48 43 -61 51 -148 83 -64 25 -65 25 -77 5z"/>
<path d="M2536 823 c-10 -43 -26 -119 -36 -170 -10 -50 -23 -101 -29 -112 -6
-11 -11 -32 -11 -48 0 -15 -16 -87 -36 -158 -20 -72 -48 -176 -63 -232 l-28
-103 72 0 73 0 78 98 c44 53 118 142 165 197 106 123 239 295 239 309 0 5 6 1
14 -9 8 -11 12 -24 9 -29 -4 -5 -1 -6 4 -3 6 4 18 42 28 84 9 43 19 86 21 96
3 9 1 17 -5 17 -6 0 -11 -10 -11 -22 0 -30 -32 -82 -71 -116 -17 -15 -47 -43
-67 -63 -50 -47 -62 -56 -108 -74 l-39 -16 47 41 c26 22 56 55 67 74 22 36 27
51 12 42 -5 -4 -11 0 -14 6 -2 8 -11 0 -19 -17 -28 -54 -121 -105 -190 -105
-33 0 -49 29 -70 123 -6 28 -14 55 -17 59 -4 4 -3 51 0 105 4 54 6 99 4 101
-1 1 -10 -33 -19 -75z"/>
<path d="M1992 866 c-24 -31 -20 -35 60 -66 61 -23 96 -44 130 -77 l47 -46 19
23 19 24 -51 44 c-59 51 -210 117 -224 98z"/>
<path d="M1782 526 c-10 -23 -8 -25 77 -61 52 -21 114 -57 150 -87 59 -47 63
-49 77 -31 13 16 9 22 -39 67 -31 30 -83 64 -132 86 -116 54 -120 55 -133 26z"/>
<path d="M1716 416 c-15 -24 -15 -25 7 -32 64 -20 188 -89 235 -129 l52 -47
33 27 c35 30 52 53 44 62 -3 2 -13 -7 -22 -21 l-17 -26 -52 46 c-40 36 -235
144 -259 144 -2 0 -12 -11 -21 -24z"/>
<path d="M0 150 l0 -150 240 0 240 0 0 30 c0 23 -4 30 -20 30 -11 0 -20 7 -20
15 0 8 -9 15 -20 15 -13 0 -20 7 -20 20 0 13 -7 20 -20 20 -15 0 -20 7 -20 25
0 18 -5 25 -20 25 -11 0 -20 5 -20 10 0 6 -9 10 -20 10 -11 0 -20 5 -20 10 0
6 -9 10 -20 10 -11 0 -20 4 -20 9 0 5 -18 12 -40 16 -25 4 -40 12 -40 21 0 11
-5 12 -17 6 -10 -5 -22 -8 -28 -6 -5 1 -27 5 -48 9 -21 3 -35 10 -32 16 4 5
-3 9 -14 9 -20 0 -21 -5 -21 -150z"/>
<path d="M6200 110 c0 -18 -7 -20 -60 -20 l-60 0 0 -40 0 -40 -40 0 c-33 0
-40 3 -40 20 0 13 -7 20 -20 20 -13 0 -20 -7 -20 -19 0 -25 35 -31 181 -31
l119 0 0 65 0 65 -30 0 c-23 0 -30 -4 -30 -20z"/>
</g>
</svg>
